# xmcd
#
# Track frame offsets:
#	150
#	18584
#	34117
#	50331
#	67715
#	83950
#	99402
#	118673
#	133816
#	148743
#	167102
#	181561
#
# Disc length: 2747 seconds
#
# Revision: 0
# Processed by: cddbd v1.5.2PL0 Copyright (c) Steve Scherf et al.
# Submitted via: audiograbber 1.83.01
#
DISCID=9b0ab90c
DTITLE=Compilation - CB 60439
DYEAR=2010
DGENRE=Karaoke
TTITLE0=Gary Allan - Get Off On The Pain
TTITLE1=Reba Mcentire - I Keep On Loving You
TTITLE2=Jerrod Niemann - Lover, Lover
TTITLE3=Blake Shelton - All About Tonight
TTITLE4=Josh Turner - All Over Me
TTITLE5=Jaron and The Long Road To Love - Pray For You
TTITLE6=James Wesley - Jackson Hole
TTITLE7=Katie Armiger - Kiss Me Now
TTITLE8=Colt Ford ftg James Otto - Chicken and Biscuits
TTITLE9=Randy Montana - Ain't Much Left Of Lovin' You
TTITLE10=Carrie Underwood - Undo It
TTITLE11=Taylor Swift - Untouchable
EXTD=
EXTT0=
EXTT1=
EXTT2=
EXTT3=
EXTT4=
EXTT5=
EXTT6=
EXTT7=
EXTT8=
EXTT9=
EXTT10=
EXTT11=
PLAYORDER=
